<svg width="32" height="32" viewBox="0 0 32 32" fill="none" xmlns="http://www.w3.org/2000/svg">
<g clip-path="url(#clip0_1_892)">
<path d="M15.987 2.66663C8.62699 2.66663 2.66699 8.63996 2.66699 16C2.66699 23.36 8.62699 29.3333 15.987 29.3333C23.3603 29.3333 29.3337 23.36 29.3337 16C29.3337 8.63996 23.3603 2.66663 15.987 2.66663ZM16.0003 26.6666C10.107 26.6666 5.33366 21.8933 5.33366 16C5.33366 10.1066 10.107 5.33329 16.0003 5.33329C21.8937 5.33329 26.667 10.1066 26.667 16C26.667 21.8933 21.8937 26.6666 16.0003 26.6666ZM20.667 14.6666C21.7737 14.6666 22.667 13.7733 22.667 12.6666C22.667 11.56 21.7737 10.6666 20.667 10.6666C19.5603 10.6666 18.667 11.56 18.667 12.6666C18.667 13.7733 19.5603 14.6666 20.667 14.6666ZM11.3337 14.6666C12.4403 14.6666 13.3337 13.7733 13.3337 12.6666C13.3337 11.56 12.4403 10.6666 11.3337 10.6666C10.227 10.6666 9.33366 11.56 9.33366 12.6666C9.33366 13.7733 10.227 14.6666 11.3337 14.6666ZM16.0003 23.3333C19.107 23.3333 21.747 21.3866 22.8137 18.6666H9.18699C10.2537 21.3866 12.8937 23.3333 16.0003 23.3333Z" fill="#46F4DB"/>
</g>
<defs>
<clipPath id="clip0_1_892">
<rect width="32" height="32" fill="white"/>
</clipPath>
</defs>
</svg>
