<svg width="32" height="32" viewBox="0 0 32 32" fill="none" xmlns="http://www.w3.org/2000/svg">
<g clip-path="url(#clip0_1_902)">
<path d="M30.6663 16L27.413 12.28L27.8663 7.36L23.053 6.26667L20.533 2L15.9997 3.94667L11.4663 2L8.94634 6.25333L4.13301 7.33333L4.58634 12.2667L1.33301 16L4.58634 19.72L4.13301 24.6533L8.94634 25.7467L11.4663 30L15.9997 28.04L20.533 29.9867L23.053 25.7333L27.8663 24.64L27.413 19.72L30.6663 16ZM13.453 22.2933L8.38634 17.2133L10.3597 15.24L13.453 18.3467L21.253 10.52L23.2263 12.4933L13.453 22.2933Z" fill="#46F4DB"/>
</g>
<defs>
<clipPath id="clip0_1_902">
<rect width="32" height="32" fill="white"/>
</clipPath>
</defs>
</svg>
